<svg width="32" height="32" viewBox="0 0 32 32" fill="none" xmlns="http://www.w3.org/2000/svg">
<path d="M10.6785 27.772C12.8757 27.3384 14.3859 25.6139 14.0517 23.92C13.7174 22.2262 11.6653 21.2046 9.46811 21.6382C7.27092 22.0717 5.7607 23.7963 6.09494 25.4901C6.42918 27.184 8.48131 28.2056 10.6785 27.772Z" fill="#939395"/>
<path d="M22.6209 25.2569C24.8057 24.7653 26.2696 23.0009 25.8906 21.3161C25.5115 19.6312 23.433 18.6639 21.2481 19.1555C19.0633 19.647 17.5994 21.4114 17.9784 23.0962C18.3575 24.7811 20.436 25.7484 22.6209 25.2569Z" fill="#939395"/>
<path d="M14.07 6.625H12.822V24.093H14.07V6.625Z" fill="#939395"/>
<path d="M25.923 4.13H24.676V21.597H25.923V4.13Z" fill="#939395"/>
<path d="M12.822 6.625L25.299 4.13V9.12101L13.446 12.24L12.822 6.625Z" fill="#939395"/>
</svg>
