<svg width="32" height="32" viewBox="0 0 32 32" fill="none" xmlns="http://www.w3.org/2000/svg">
<path d="M10.737 23.695C8.28396 22.016 6.67596 19.197 6.67596 16C6.67596 12.939 8.15596 10.231 10.436 8.53101" stroke="#939395" stroke-width="1.9291" stroke-miterlimit="10" stroke-linecap="round"/>
<path d="M8.13096 5.43994C4.91196 7.84394 2.81696 11.6739 2.81696 15.9999C2.81696 20.5199 5.09296 24.5049 8.55996 26.8799" stroke="#939395" stroke-width="1.9291" stroke-miterlimit="10" stroke-linecap="round"/>
<path d="M21.263 8.30505C23.713 9.98605 25.325 12.8051 25.325 16.0001C25.325 19.0611 23.845 21.7701 21.565 23.4691" stroke="#939395" stroke-width="1.9291" stroke-miterlimit="10" stroke-linecap="round"/>
<path d="M23.867 26.561C27.088 24.157 29.181 20.328 29.181 16C29.181 11.481 26.906 7.496 23.439 5.12" stroke="#939395" stroke-width="1.9291" stroke-miterlimit="10" stroke-linecap="round"/>
<path d="M12.914 20.5119C11.476 19.5269 10.533 17.8739 10.533 15.9999C10.533 14.2069 11.401 12.6189 12.736 11.6219" stroke="#939395" stroke-width="1.9291" stroke-miterlimit="10" stroke-linecap="round"/>
<path d="M10.436 8.53101C8.15696 10.231 6.67596 12.939 6.67596 16C6.67596 19.197 8.28396 22.016 10.738 23.695" stroke="#939395" stroke-width="1.9291" stroke-miterlimit="10" stroke-linecap="round"/>
<path d="M25.324 16.0001C25.324 12.8051 23.713 9.98505 21.262 8.30505" stroke="#939395" stroke-width="1.9291" stroke-miterlimit="10" stroke-linecap="round"/>
<path d="M19.084 11.49C20.522 12.474 21.466 14.127 21.466 16C21.466 17.795 20.597 19.383 19.262 20.379" stroke="#939395" stroke-width="1.9291" stroke-miterlimit="10" stroke-linecap="round"/>
<path d="M19.262 20.379C20.597 19.383 21.466 17.795 21.466 16C21.466 14.127 20.522 12.475 19.084 11.49" stroke="#939395" stroke-width="1.9291" stroke-miterlimit="10" stroke-linecap="round"/>
<path d="M12.736 11.6219C11.401 12.6189 10.533 14.2069 10.533 15.9999C10.533 17.8739 11.476 19.5259 12.914 20.5119" stroke="#939395" stroke-width="1.9291" stroke-miterlimit="10" stroke-linecap="round"/>
<path d="M15.9999 18.1181C17.0659 18.1181 17.9299 17.254 17.9299 16.1881C17.9299 15.1221 17.0659 14.2581 15.9999 14.2581C14.934 14.2581 14.0699 15.1221 14.0699 16.1881C14.0699 17.254 14.934 18.1181 15.9999 18.1181Z" fill="#939395"/>
</svg>
