<svg width="84" height="34" viewBox="0 0 84 34" fill="none" xmlns="http://www.w3.org/2000/svg">
<path d="M48 3H36V4.813H48V3Z" fill="#909092"/>
<path d="M50 6H34V8H50V6Z" fill="#909092"/>
<path d="M52 9H32V29H52V9Z" fill="#909092"/>
<path d="M39.7784 23.8435C40.976 23.444 41.7042 22.3927 41.4049 21.4953C41.1055 20.5978 39.892 20.1941 38.6944 20.5936C37.4968 20.9931 36.7685 22.0444 37.0679 22.9418C37.3672 23.8393 38.5807 24.243 39.7784 23.8435Z" fill="white"/>
<path d="M41.479 14H41V22H41.479V14Z" fill="white"/>
<path d="M45.571 15.585L41 17V13.7L45.571 12.286V15.585Z" fill="white"/>
</svg>
